Coordinates
version=1
nRows=5
nColumns=60
inDegrees=yes

Units are S.I. units (second, meters, Newtons, ...)
If the header above contains a line with 'inDegrees', this indicates whether rotational values are in degrees (yes) or radians (no).

endheader
time	pelvis_tilt	pelvis_list	pelvis_rotation	pelvis_tx	pelvis_ty	pelvis_tz	hip_flexion_r	hip_adduction_r	hip_rotation_r	knee_angle_r_beta	knee_angle_r	ankle_angle_r	subtalar_angle_r	mtp_angle_r	hip_flexion_l	hip_adduction_l	hip_rotation_l	knee_angle_l_beta	knee_angle_l	ankle_angle_l	subtalar_angle_l	mtp_angle_l	L5_S1_Flex_Ext	L5_S1_Lat_Bending	L5_S1_axial_rotation	L4_L5_Flex_Ext	L4_L5_Lat_Bending	L4_L5_axial_rotation	L3_L4_Flex_Ext	L3_L4_Lat_Bending	L3_L4_axial_rotation	L2_L3_Flex_Ext	L2_L3_Lat_Bending	L2_L3_axial_rotation	L1_L2_Flex_Ext	L1_L2_Lat_Bending	L1_L2_axial_rotation	L1_T12_Flex_Ext	L1_T12_Lat_Bending	L1_T12_axial_rotation	Abs_r3	Abs_r2	Abs_r1	Abs_t1	Abs_t2	arm_flex_r	arm_add_r	arm_rot_r	elbow_flex_r	pro_sup_r	wrist_flex_r	wrist_dev_r	arm_flex_l	arm_add_l	arm_rot_l	elbow_flex_l	pro_sup_l	wrist_flex_l	wrist_dev_l
    129.08000000	      0.20974153	      8.65583671	     90.67445327	      0.39029444	      0.94076263	      0.28713542	      0.42086361	     -5.65021277	      0.26519676	      0.22767003	    -13.04453200	      7.58794556	      0.00000000	      0.00000000	      0.39426557	     -4.80208928	     -3.40138476	      0.21114851	    -12.09791833	      9.08785548	      0.00000000	      0.00000000	     -7.53085263	      0.03760843	     -0.30482936	    -13.98554643	      0.05001921	     -0.32388119	    -12.37243779	      0.09144113	     -0.32388119	     -8.60701147	      0.09144113	     -0.26672569	     -6.99314976	      0.07669111	     -0.24767385	     -4.30312919	      0.05825546	     -0.22862202	    -53.79212727	      0.42543407	     -1.69536943	      0.00000000	      0.00000000	      8.16574008	    -24.54054133	     -1.90435073	     96.43099610	     80.04153121	      0.73042068	      9.29369760	     10.33352323	    -23.53227358	      1.60032726	     95.45709717	     76.38322852	      3.76061397	     10.07319055
    129.09000000	      0.17813034	      8.52719987	     90.62621410	      0.39002898	      0.94060209	      0.28912310	      0.71374568	     -5.72022240	      0.35976247	      0.22804038	    -13.06575131	      7.39112735	      0.00000000	      0.00000000	      0.70268708	     -4.74579810	     -3.33585974	      0.21261662	    -12.18203498	      8.93035248	      0.00000000	      0.00000000	     -7.61285513	      0.03661931	     -0.30194013	    -14.13783326	      0.04870369	     -0.32081139	    -12.50715969	      0.08903620	     -0.32081139	     -8.70073213	      0.08903620	     -0.26419762	     -7.06929727	      0.07467410	     -0.24532636	     -4.34998542	      0.05672332	     -0.22645510	    -54.37786291	      0.41424500	     -1.67930043	      0.00000000	      0.00000000	      8.52930498	    -24.63172297	     -1.69574864	     96.16442161	     80.13653542	      0.79081869	      9.16188611	     10.64184914	    -23.33339680	      1.61759882	     95.04174283	     76.43355049	      3.77329709	     10.07826079
    129.10000000	      0.18583462	      8.32533390	     90.56247310	      0.38978468	      0.94033740	      0.29113163	      1.10268627	     -5.74179289	      0.41739630	      0.22822409	    -13.07627728	      7.05307978	      0.00000000	      0.00000000	      1.11031429	     -4.72821651	     -3.33960787	      0.21452614	    -12.29144235	      8.71092062	      0.00000000	      0.00000000	     -7.67293078	      0.04029510	     -0.30334239	    -14.24939976	      0.05359248	     -0.32230129	    -12.60585798	      0.09797350	     -0.32230129	     -8.76939259	      0.09797350	     -0.26542459	     -7.12508353	      0.08216976	     -0.24646569	     -4.38431265	      0.06241710	     -0.22750679	    -54.80697729	      0.45582619	     -1.68709936	      0.00000000	      0.00000000	      9.11184174	    -24.87553721	     -1.19225995	     95.58530458	     80.41644560	      0.96163825	      8.76732609	     11.02573649	    -23.17412073	      1.69507720	     94.29893998	     76.61720659	      3.84158155	     10.07310773
    129.11000000	      0.17889286	      8.11542085	     90.49446480	      0.38962505	      0.93997316	      0.29309174	      1.45483233	     -5.78248882	      0.42191328	      0.22700541	    -13.00645164	      7.03461311	      0.00000000	      0.00000000	      1.43726633	     -4.69554977	     -3.31565751	      0.21374031	    -12.24641748	      8.70603116	      0.00000000	      0.00000000	     -7.75732435	      0.03973790	     -0.29933065	    -14.40612706	      0.05285140	     -0.31803881	    -12.74450818	      0.09661872	     -0.31803881	     -8.86584600	      0.09661872	     -0.26191432	     -7.20345139	      0.08103352	     -0.24320615	     -4.43253514	      0.06155400	     -0.22449799	    -55.40979212	      0.44952303	     -1.66478726	      0.00000000	      0.00000000	      9.47623642	    -24.92801860	     -1.17021594	     95.46123983	     80.45030981	      0.98529185	      8.71116445	     11.27621787	    -23.10862612	      1.69529729	     94.12079118	     76.64073490	      3.85413039	     10.06969045
    129.12000000	      0.17538402	      7.84612978	     90.39169175	      0.38957142	      0.93962871	      0.29508899	      1.96972199	     -5.80010831	      0.59090484	      0.22925032	    -13.13507581	      6.75370706	      0.00000000	      0.00000000	      1.92625835	     -4.67157486	     -3.27421509	      0.21648702	    -12.40379268	      8.54499406	      0.00000000	      0.00000000	     -7.80308410	      0.02761435	     -0.33493439	    -14.49110748	      0.03672709	     -0.35586779	    -12.81968687	      0.06714154	     -0.35586779	     -8.91814482	      0.06714154	     -0.29306760	     -7.24594390	      0.05631119	     -0.27213420	     -4.45868226	      0.04277463	     -0.25120080	    -55.73664942	      0.31237908	     -1.86280462	      0.00000000	      0.00000000	     10.42498348	    -25.11330627	     -0.23362217	     94.15496305	     82.12002934	      2.46668147	      5.13486875	     11.52815989	    -23.00613033	      1.46814629	     93.30947151	     78.20669765	      4.69136383	      9.47525428
